<mxfile host="app.diagrams.net" modified="2021-02-04T02:46:41.743Z" agent="5.0 (Macintosh; Intel Mac OS X 10_15_7) AppleWebKit/537.36 (KHTML, like Gecko) Chrome/88.0.4324.96 Safari/537.36" etag="YkKKZLWi8i06dpnFy3GV" version="14.2.9" type="github">
  <diagram id="6I0OCvxSQrVGMHxT2VVA" name="Page-1">
    <mxGraphModel dx="2066" dy="1163" grid="1" gridSize="10" guides="1" tooltips="1" connect="1" arrows="1" fold="1" page="1" pageScale="1" pageWidth="850" pageHeight="1100" math="0" shadow="0">
      <root>
        <mxCell id="0" />
        <mxCell id="1" parent="0" />
        <mxCell id="dKdSaXE48SgPbhcamS2K-31" value="" style="whiteSpace=wrap;html=1;strokeColor=none;strokeWidth=1;fillColor=#f5f5f5;fontSize=14;" parent="1" vertex="1">
          <mxGeometry x="410" y="543" width="860" height="100" as="geometry" />
        </mxCell>
        <mxCell id="dKdSaXE48SgPbhcamS2K-32" value="" style="whiteSpace=wrap;html=1;strokeColor=none;strokeWidth=1;fillColor=#f5f5f5;fontSize=14;" parent="1" vertex="1">
          <mxGeometry x="424" y="373" width="830" height="137" as="geometry" />
        </mxCell>
        <mxCell id="dKdSaXE48SgPbhcamS2K-46" style="edgeStyle=elbowEdgeStyle;rounded=1;elbow=vertical;html=1;startSize=10;endArrow=open;endFill=0;endSize=10;jettySize=auto;orthogonalLoop=1;strokeColor=#808080;fontSize=14;" parent="1" target="dKdSaXE48SgPbhcamS2K-54" edge="1">
          <mxGeometry relative="1" as="geometry">
            <mxPoint x="521.5" y="554" as="sourcePoint" />
            <mxPoint x="504" y="512" as="targetPoint" />
            <Array as="points">
              <mxPoint x="589" y="520" />
            </Array>
          </mxGeometry>
        </mxCell>
        <mxCell id="dKdSaXE48SgPbhcamS2K-47" value="Processor 1" style="shape=component;align=center;fillColor=#99ffff;gradientColor=none;fontSize=14;" parent="1" vertex="1">
          <mxGeometry x="429" y="553" width="185" height="80" as="geometry" />
        </mxCell>
        <mxCell id="dKdSaXE48SgPbhcamS2K-48" style="edgeStyle=elbowEdgeStyle;rounded=1;elbow=vertical;html=1;startSize=10;endArrow=open;endFill=0;endSize=10;jettySize=auto;orthogonalLoop=1;strokeColor=#808080;fontSize=14;entryX=0.5;entryY=1;entryDx=0;entryDy=0;entryPerimeter=0;" parent="1" source="dKdSaXE48SgPbhcamS2K-49" target="dKdSaXE48SgPbhcamS2K-54" edge="1">
          <mxGeometry relative="1" as="geometry">
            <mxPoint x="713.5" y="478" as="targetPoint" />
            <Array as="points">
              <mxPoint x="704" y="520" />
            </Array>
          </mxGeometry>
        </mxCell>
        <mxCell id="dKdSaXE48SgPbhcamS2K-49" value="Processor 2" style="shape=component;align=center;fillColor=#99ffff;gradientColor=none;fontSize=14;" parent="1" vertex="1">
          <mxGeometry x="637" y="553" width="185" height="80" as="geometry" />
        </mxCell>
        <mxCell id="dKdSaXE48SgPbhcamS2K-50" style="edgeStyle=elbowEdgeStyle;rounded=1;elbow=vertical;html=1;startSize=10;endArrow=open;endFill=0;endSize=10;jettySize=auto;orthogonalLoop=1;strokeColor=#808080;fontSize=14;entryX=0.5;entryY=1;entryDx=0;entryDy=0;entryPerimeter=0;" parent="1" source="dKdSaXE48SgPbhcamS2K-51" target="dKdSaXE48SgPbhcamS2K-54" edge="1">
          <mxGeometry relative="1" as="geometry">
            <mxPoint x="938" y="478" as="targetPoint" />
            <Array as="points">
              <mxPoint x="674" y="520" />
            </Array>
          </mxGeometry>
        </mxCell>
        <mxCell id="dKdSaXE48SgPbhcamS2K-51" value="......" style="shape=component;align=center;fillColor=#99ffff;gradientColor=none;fontSize=14;" parent="1" vertex="1">
          <mxGeometry x="861.5" y="553" width="185" height="80" as="geometry" />
        </mxCell>
        <mxCell id="dKdSaXE48SgPbhcamS2K-52" style="edgeStyle=elbowEdgeStyle;rounded=1;elbow=vertical;html=1;startSize=10;endArrow=open;endFill=0;endSize=10;jettySize=auto;orthogonalLoop=1;strokeColor=#808080;fontSize=14;entryX=0.5;entryY=1;entryDx=0;entryDy=0;entryPerimeter=0;" parent="1" source="dKdSaXE48SgPbhcamS2K-53" target="dKdSaXE48SgPbhcamS2K-54" edge="1">
          <mxGeometry relative="1" as="geometry">
            <mxPoint x="1145.5" y="478" as="targetPoint" />
            <Array as="points">
              <mxPoint x="674" y="520" />
            </Array>
          </mxGeometry>
        </mxCell>
        <mxCell id="dKdSaXE48SgPbhcamS2K-53" value="Processor 3" style="shape=component;align=center;fillColor=#99ffff;gradientColor=none;fontSize=14;" parent="1" vertex="1">
          <mxGeometry x="1069" y="553" width="185" height="80" as="geometry" />
        </mxCell>
        <mxCell id="dKdSaXE48SgPbhcamS2K-54" value="Serverable" style="html=1;whiteSpace=wrap;fillColor=#ffff99;shape=mxgraph.archimate3.application;appType=func;archiType=rounded;fontSize=14;" parent="1" vertex="1">
          <mxGeometry x="514" y="405" width="150" height="75" as="geometry" />
        </mxCell>
        <mxCell id="dKdSaXE48SgPbhcamS2K-59" value="逻辑层" style="text;html=1;strokeColor=none;fillColor=none;align=center;verticalAlign=middle;whiteSpace=wrap;fontSize=14;" parent="1" vertex="1">
          <mxGeometry x="1254" y="583" width="240" height="20" as="geometry" />
        </mxCell>
        <mxCell id="dKdSaXE48SgPbhcamS2K-60" value="单体服务层" style="text;html=1;strokeColor=none;fillColor=none;align=center;verticalAlign=middle;whiteSpace=wrap;fontSize=14;" parent="1" vertex="1">
          <mxGeometry x="1254" y="431.5" width="240" height="20" as="geometry" />
        </mxCell>
        <mxCell id="_qcQWL1i_tCUkJWsPMVe-4" value="Serverable" style="html=1;whiteSpace=wrap;fillColor=#ffff99;shape=mxgraph.archimate3.application;appType=func;archiType=rounded;fontSize=14;" vertex="1" parent="1">
          <mxGeometry x="764" y="405" width="150" height="75" as="geometry" />
        </mxCell>
        <mxCell id="_qcQWL1i_tCUkJWsPMVe-5" value="Serverable" style="html=1;whiteSpace=wrap;fillColor=#ffff99;shape=mxgraph.archimate3.application;appType=func;archiType=rounded;fontSize=14;" vertex="1" parent="1">
          <mxGeometry x="1014" y="405" width="150" height="75" as="geometry" />
        </mxCell>
        <mxCell id="_qcQWL1i_tCUkJWsPMVe-6" value="" style="whiteSpace=wrap;html=1;strokeColor=none;strokeWidth=1;fillColor=#f5f5f5;fontSize=14;" vertex="1" parent="1">
          <mxGeometry x="424" y="210" width="830" height="140" as="geometry" />
        </mxCell>
        <mxCell id="_qcQWL1i_tCUkJWsPMVe-20" style="edgeStyle=orthogonalEdgeStyle;rounded=0;orthogonalLoop=1;jettySize=auto;html=1;" edge="1" parent="1" source="_qcQWL1i_tCUkJWsPMVe-7">
          <mxGeometry relative="1" as="geometry">
            <mxPoint x="839" y="170" as="targetPoint" />
          </mxGeometry>
        </mxCell>
        <mxCell id="_qcQWL1i_tCUkJWsPMVe-7" value="Gunicorn" style="html=1;outlineConnect=0;whiteSpace=wrap;fillColor=#FF9999;shape=mxgraph.archimate3.application;appType=collab;archiType=square;" vertex="1" parent="1">
          <mxGeometry x="764" y="250" width="150" height="67.5" as="geometry" />
        </mxCell>
        <mxCell id="_qcQWL1i_tCUkJWsPMVe-10" style="edgeStyle=elbowEdgeStyle;rounded=1;elbow=vertical;html=1;startSize=10;endArrow=open;endFill=0;endSize=10;jettySize=auto;orthogonalLoop=1;strokeColor=#808080;fontSize=14;exitX=0.5;exitY=0;exitDx=0;exitDy=0;exitPerimeter=0;entryX=0.5;entryY=1;entryDx=0;entryDy=0;entryPerimeter=0;" edge="1" parent="1" source="dKdSaXE48SgPbhcamS2K-54" target="_qcQWL1i_tCUkJWsPMVe-7">
          <mxGeometry relative="1" as="geometry">
            <mxPoint x="594" y="393" as="sourcePoint" />
            <mxPoint x="677.5" y="308" as="targetPoint" />
          </mxGeometry>
        </mxCell>
        <mxCell id="_qcQWL1i_tCUkJWsPMVe-12" style="edgeStyle=elbowEdgeStyle;rounded=1;elbow=vertical;html=1;startSize=10;endArrow=open;endFill=0;endSize=10;jettySize=auto;orthogonalLoop=1;strokeColor=#808080;fontSize=14;entryX=0.5;entryY=1;entryDx=0;entryDy=0;entryPerimeter=0;exitX=0.5;exitY=0;exitDx=0;exitDy=0;exitPerimeter=0;" edge="1" parent="1" source="_qcQWL1i_tCUkJWsPMVe-4" target="_qcQWL1i_tCUkJWsPMVe-7">
          <mxGeometry relative="1" as="geometry">
            <mxPoint x="848.5" y="405" as="sourcePoint" />
            <mxPoint x="724" y="320" as="targetPoint" />
          </mxGeometry>
        </mxCell>
        <mxCell id="_qcQWL1i_tCUkJWsPMVe-13" style="edgeStyle=elbowEdgeStyle;rounded=1;elbow=vertical;html=1;startSize=10;endArrow=open;endFill=0;endSize=10;jettySize=auto;orthogonalLoop=1;strokeColor=#808080;fontSize=14;exitX=0.5;exitY=0;exitDx=0;exitDy=0;exitPerimeter=0;" edge="1" parent="1" source="_qcQWL1i_tCUkJWsPMVe-5" target="_qcQWL1i_tCUkJWsPMVe-7">
          <mxGeometry relative="1" as="geometry">
            <mxPoint x="1098.5" y="385" as="sourcePoint" />
            <mxPoint x="974" y="300" as="targetPoint" />
          </mxGeometry>
        </mxCell>
        <mxCell id="_qcQWL1i_tCUkJWsPMVe-14" value="服务代理层" style="text;html=1;strokeColor=none;fillColor=none;align=center;verticalAlign=middle;whiteSpace=wrap;fontSize=14;" vertex="1" parent="1">
          <mxGeometry x="1254" y="270" width="240" height="20" as="geometry" />
        </mxCell>
        <mxCell id="_qcQWL1i_tCUkJWsPMVe-15" value="" style="endArrow=none;dashed=1;html=1;dashPattern=1 3;strokeWidth=2;" edge="1" parent="1">
          <mxGeometry width="50" height="50" relative="1" as="geometry">
            <mxPoint x="280" y="670" as="sourcePoint" />
            <mxPoint x="280" y="170" as="targetPoint" />
          </mxGeometry>
        </mxCell>
        <mxCell id="_qcQWL1i_tCUkJWsPMVe-17" value="" style="endArrow=none;dashed=1;html=1;dashPattern=1 3;strokeWidth=2;" edge="1" parent="1">
          <mxGeometry width="50" height="50" relative="1" as="geometry">
            <mxPoint x="1509" y="670.5" as="sourcePoint" />
            <mxPoint x="1509" y="170.5" as="targetPoint" />
          </mxGeometry>
        </mxCell>
        <mxCell id="_qcQWL1i_tCUkJWsPMVe-18" value="" style="endArrow=none;dashed=1;html=1;dashPattern=1 3;strokeWidth=2;" edge="1" parent="1">
          <mxGeometry width="50" height="50" relative="1" as="geometry">
            <mxPoint x="280" y="170" as="sourcePoint" />
            <mxPoint x="1510" y="170" as="targetPoint" />
          </mxGeometry>
        </mxCell>
        <mxCell id="_qcQWL1i_tCUkJWsPMVe-19" value="" style="endArrow=none;dashed=1;html=1;dashPattern=1 3;strokeWidth=2;" edge="1" parent="1">
          <mxGeometry width="50" height="50" relative="1" as="geometry">
            <mxPoint x="279" y="670" as="sourcePoint" />
            <mxPoint x="1509" y="670" as="targetPoint" />
          </mxGeometry>
        </mxCell>
        <mxCell id="_qcQWL1i_tCUkJWsPMVe-21" value="&lt;font style=&quot;font-size: 18px&quot;&gt;HTTP&lt;/font&gt;" style="text;html=1;strokeColor=none;fillColor=none;align=center;verticalAlign=middle;whiteSpace=wrap;rounded=0;" vertex="1" parent="1">
          <mxGeometry x="840" y="170" width="70" height="30" as="geometry" />
        </mxCell>
      </root>
    </mxGraphModel>
  </diagram>
</mxfile>
